<svg width="40" height="40" viewBox="0 0 40 40" fill="none" xmlns="http://www.w3.org/2000/svg">
<g clip-path="url(#clip0_67_77)">
<path d="M15.9388 26.1768C15.4912 25.128 15.5764 24.3468 16.0092 23.3466C16.6535 21.9584 18.2568 21.6076 18.2568 21.6076L16.7802 19.05C17.1046 18.8514 17.4452 18.6808 17.7982 18.54L19.6985 21.8314C19.6985 21.8314 18.0956 22.182 17.4516 23.5705C17.0189 24.5701 16.9331 25.3521 17.3812 26.4008C17.6848 26.9353 18.1866 27.5736 18.9941 27.9097C18.8467 27.917 18.6923 27.9175 18.5311 27.9111C17.1246 27.8157 16.3505 26.9012 15.9388 26.1768ZM20.6266 10.5239C19.4088 10.1372 18.6503 9.47481 18.2137 8.95399L19.152 8.41226C19.152 8.41226 19.8425 10.0403 22.0689 10.7478L22.0994 10.757C21.5985 10.738 21.104 10.6597 20.6266 10.5239ZM26.4845 10.2314L28.3465 13.4566C28.3465 13.4566 27.1221 14.101 26.1059 14.3872C24.6867 14.7862 23.6123 14.7618 23.6123 14.7618C23.6123 14.7618 22.8639 14.7341 22.8056 14.7357L26.6507 21.3957C26.8648 21.7666 27.298 22.7513 27.4343 23.7025C27.6135 24.9463 27.3727 25.9696 27.3362 26.1714C27.3362 26.1714 27.0952 27.506 26.1054 28.8824C25.2135 30.1235 24.1463 30.7213 23.8377 30.9178C23.8377 30.9178 22.0486 32.0475 19.7828 31.928C19.2903 31.8976 18.8034 31.8224 18.3285 31.7031L18.3401 31.7042C20.6063 31.8235 22.395 30.6941 22.395 30.6941C22.704 30.4973 23.7712 29.8996 24.6627 28.6587C25.6513 27.2829 25.8935 25.9477 25.8935 25.9477C25.9287 25.7466 26.1724 24.7216 25.9913 23.4784C25.8544 22.5281 25.4219 21.5425 25.2078 21.1716L21.3631 14.5124C21.4216 14.5112 22.1696 14.5391 22.1696 14.5391C22.1696 14.5391 23.2446 14.5637 24.6636 14.1643C25.6803 13.8779 26.9043 13.2337 26.9043 13.2337L25.4451 10.7064C25.9077 10.5618 26.2711 10.3851 26.4845 10.2314Z" fill="#EE1D52"/>
<path d="M25.4456 10.7062L26.9042 13.2326C26.9042 13.2326 25.6802 13.8768 24.6636 14.1632C23.2443 14.5622 22.1696 14.5381 22.1696 14.5381C22.1696 14.5381 21.4216 14.5101 21.363 14.5113L25.2087 21.1722C25.4228 21.543 25.8561 22.5281 25.9922 23.4789C26.1716 24.7231 25.9308 25.7464 25.8944 25.9482C25.8944 25.9482 25.6529 27.283 24.6636 28.6592C23.772 29.9001 22.7049 30.4978 22.3958 30.6946C22.3958 30.6946 20.6071 31.824 18.341 31.7048L18.3293 31.7036C18.0581 31.6356 17.7916 31.5522 17.5312 31.454C16.6351 31.1164 15.875 30.5443 15.6691 30.3748C15.6684 30.3739 15.6679 30.373 15.6675 30.372C15.3201 30.0713 14.525 29.3265 14.0575 28.4305C13.233 26.8494 13.229 25.5891 13.2355 25.269C13.2421 24.4026 13.4022 23.5384 13.7087 22.7148C13.9847 21.9975 14.3792 21.3258 14.8759 20.7273C15.4003 20.0586 16.0466 19.4893 16.7802 19.0499L18.2568 21.6075C18.2568 21.6075 16.6544 21.9599 16.0097 23.3463C15.5768 24.3466 15.4916 25.1277 15.9393 26.1765C16.3509 26.9009 17.1251 27.8154 18.5309 27.9117C18.6923 27.9184 18.8466 27.9179 18.9939 27.9103C19.3036 28.0381 19.6346 28.1142 19.9737 28.1354C21.3245 28.1905 22.1787 27.7556 23.0039 26.7369C23.5537 26.0569 23.7319 25.137 23.5866 24.3155C23.4968 23.802 23.2483 23.3764 22.9935 22.935L15.7446 10.3795L18.2116 8.95514C18.6483 9.47597 19.4068 10.1383 20.6245 10.525C21.1019 10.6609 21.5964 10.7392 22.0974 10.7582C22.2708 10.8078 23.1464 11.0426 24.0558 10.9721C24.526 10.9355 24.9923 10.8463 25.4456 10.7062Z" fill="black"/>
<path d="M14.2338 30.1562L14.2349 30.1582L14.3919 30.2888C14.3737 30.2735 14.3171 30.228 14.2338 30.1562Z" fill="#69C9D0"/>
<path d="M14.876 20.7274C14.3792 21.3259 13.9848 21.9975 13.7088 22.7148C13.4027 23.5396 13.2434 24.405 13.238 25.2723C13.231 25.5916 13.2355 26.8528 14.0601 28.4338C14.5275 29.3299 15.3226 30.0746 15.67 30.3753C15.6704 30.3763 15.6709 30.3773 15.6716 30.3781C15.8776 30.545 16.6365 31.1178 17.5337 31.4573C17.7941 31.5556 18.0606 31.6389 18.3319 31.7069C17.561 31.6593 16.8059 31.4995 16.0912 31.233C15.2028 30.8983 14.4481 30.3336 14.2363 30.1606C14.2353 30.1591 14.2344 30.1575 14.2336 30.1559L14.232 30.1531C13.8844 29.853 13.0883 29.1084 12.6209 28.2106C11.7964 26.6296 11.7924 25.3692 11.7989 25.0492C11.8041 24.1818 11.9634 23.3164 12.2697 22.4917C12.5455 21.7743 12.9399 21.1026 13.4368 20.5042C13.7404 20.12 14.0842 19.7674 14.4622 19.4524C15.0339 18.9812 15.6749 18.5989 16.3614 18.3197L16.7823 19.0488C16.0479 19.4883 15.4009 20.058 14.876 20.7274Z" fill="#69C9D0"/>
<path d="M18.2137 8.95391L15.7466 10.3783L22.9958 22.9342C23.2506 23.3755 23.4964 23.8012 23.5889 24.3147C23.7315 25.1372 23.5553 26.0559 23.0059 26.7357C22.1812 27.7562 21.3261 28.1895 19.9757 28.1342C19.6367 28.1139 19.3055 28.0388 18.9955 27.912C20.0866 27.8563 20.8364 27.4134 21.5631 26.5147C22.1121 25.8352 22.2891 24.9159 22.1454 24.0935C22.0561 23.5797 21.8076 23.1541 21.553 22.7131L14.3025 10.1549L17.709 8.18808C17.709 8.18808 17.851 8.52227 18.2137 8.95391ZM25.0422 10.0074L25.4456 10.7061C24.9929 10.8457 24.5273 10.9346 24.0579 10.9708C23.1485 11.0414 22.2728 10.8066 22.0994 10.7569C22.2712 10.7635 22.4435 10.7601 22.6156 10.7469C23.7213 10.6613 24.6459 10.2924 25.0422 10.0074Z" fill="#69C9D0"/>
</g>
<defs>
<clipPath id="clip0_67_77">
<rect width="28" height="28" fill="white" transform="translate(0.875763 14.8757) rotate(-30)"/>
</clipPath>
</defs>
</svg>
